<svg width="125" height="125" viewBox="0 0 125 125" fill="none" xmlns="http://www.w3.org/2000/svg"><path fill-rule="evenodd" clip-rule="evenodd" d="M1 6.918l5.26 7.284L15.168 1H5.019L1 6.918zm54.096 0l5.26 7.284L69.264 1h-10.15l-4.018 5.918zm27.048 0l5.26 7.284L96.313 1h-10.15l-4.019 5.918zm27.047 0l5.26 7.284L123.359 1h-10.148l-4.02 5.918zm-81.144 0l5.26 7.284L42.215 1H32.066l-4.02 5.918zM1 47.322l5.26 7.284 8.908-13.202H5.019L1 47.322zm54.096 0l5.26 7.284 8.908-13.202h-10.15l-4.018 5.918zm27.048 0l5.26 7.284 8.909-13.202h-10.15l-4.019 5.918zm27.047 0l5.26 7.284 8.908-13.202h-10.148l-4.02 5.918zm-81.144 0l5.26 7.284 8.908-13.202H32.066l-4.02 5.918zM1 87.726l5.26 7.284 8.908-13.202H5.019L1 87.726zm54.096 0l5.26 7.284 8.908-13.202h-10.15l-4.018 5.918zm27.048 0l5.26 7.284 8.909-13.202h-10.15l-4.019 5.918zm27.047 0l5.26 7.284 8.908-13.202h-10.148l-4.02 5.918zm-81.144 0l5.26 7.284 8.908-13.202H32.066l-4.02 5.918zM13.88 27.12l5.26 7.284 8.909-13.202H17.9l-4.02 5.918zm54.097 0l5.26 7.284 8.907-13.202H71.996l-4.02 5.918zm27.048 0l5.26 7.284 8.908-13.202H99.045l-4.02 5.918zm-54.097 0l5.26 7.284 8.908-13.202h-10.15l-4.018 5.918zM13.88 67.524l5.26 7.284 8.909-13.202H17.9l-4.02 5.918zm54.097 0l5.26 7.284 8.907-13.202H71.996l-4.02 5.918zm27.048 0l5.26 7.284 8.908-13.202H99.045l-4.02 5.918zm-54.097 0l5.26 7.284 8.908-13.202h-10.15l-4.018 5.918zM13.88 107.928l5.26 7.284 8.909-13.202H17.9l-4.02 5.918zm54.097 0l5.26 7.284 8.907-13.202H71.996l-4.02 5.918zm27.048 0l5.26 7.284 8.908-13.202H99.045l-4.02 5.918zm-54.097 0l5.26 7.284 8.908-13.202h-10.15l-4.018 5.918z" fill="#fff" fill-opacity=".01" stroke="#F9B2C6"/></svg>