<svg width="128" height="135" viewBox="0 0 128 135" fill="none" xmlns="http://www.w3.org/2000/svg">
<path d="M16.1501 113.51C9.64014 91.17 9.64014 45.37 9.64014 45.37L93.6401 45.04C93.6401 45.04 93.6401 86.53 88.7601 113.23L16.1501 113.51V113.51Z" fill="#47352D"/>
<path d="M51.6401 85.59C74.8361 85.59 93.6401 67.9052 93.6401 46.09C93.6401 24.2747 74.8361 6.59 51.6401 6.59C28.4442 6.59 9.64014 24.2747 9.64014 46.09C9.64014 67.9052 28.4442 85.59 51.6401 85.59Z" fill="#47352D"/>
<path d="M8.06982 118.07V127.96H95.2098V118.07C95.2098 102.9 73.8198 95.2 51.9698 95.23C30.2498 95.25 8.06982 102.01 8.06982 118.07V118.07Z" fill="#444444"/>
<path d="M83.0602 80.18C83.0602 82.26 80.7402 84.18 76.8202 85.72C71.0902 87.98 59.7702 117.37 49.4602 117.37C42.7502 117.37 38.7102 88.82 33.6002 87.76C25.5102 86.08 20.2202 83.31 20.2202 80.17C20.2202 75.05 34.2902 70.91 51.6402 70.91C68.9902 70.91 83.0602 75.07 83.0602 80.18V80.18Z" fill="#262626"/>
<path d="M51.59 90.23H42.5V99.82C42.5 104.16 46.2 107.68 50.76 107.68H52.41C56.97 107.68 60.67 104.16 60.67 99.82V90.23H51.59V90.23Z" fill="#7A4C32"/>
<path d="M51.5301 13.55C27.1801 13.55 20.8101 32.42 20.8101 58.94C20.8101 85.45 39.7001 93.54 51.5301 93.54C63.3601 93.54 82.2501 85.45 82.2501 58.94C82.2501 32.43 75.8801 13.55 51.5301 13.55V13.55Z" fill="#9B643C"/>
<path d="M60.8699 78.09H42.4099C41.3499 78.09 40.8999 78.8 41.5999 79.87C42.5799 81.36 46.2099 84.23 51.6399 84.23C57.0699 84.23 60.6999 81.36 61.6799 79.87C62.3799 78.8 61.9199 78.09 60.8699 78.09V78.09ZM41.1399 60.71C41.1399 63.55 39.2399 65.86 36.8799 65.86C34.5299 65.86 32.6099 63.56 32.6099 60.71C32.6099 57.86 34.5199 55.56 36.8799 55.56C39.2399 55.55 41.1399 57.86 41.1399 60.71" fill="#42312C"/>
<path d="M62.1299 60.71C62.1299 63.55 64.0299 65.86 66.3999 65.86C68.7499 65.86 70.6599 63.56 70.6599 60.71C70.6599 57.86 68.7499 55.56 66.3999 55.56C64.0399 55.55 62.1299 57.86 62.1299 60.71" fill="#444444"/>
<path d="M56.0398 70.25C54.4698 70.69 52.8398 70.91 51.5798 70.91C50.3198 70.91 48.6898 70.69 47.1198 70.25C46.4498 70.06 46.1798 70.7 46.4298 71.12C46.9298 72 48.9298 73.76 51.5798 73.76C54.2298 73.76 56.2298 71.99 56.7298 71.12C56.9798 70.69 56.7098 70.06 56.0398 70.25Z" fill="#7A4C32"/>
<path d="M60.71 34.41C57.48 37.52 41.42 51.99 19.29 55.76V26.09C19.29 26.09 28.84 7.14001 51.76 7.14001C74.68 7.14001 84.23 26.57 84.23 26.57V55.76C84.23 55.76 69.21 50 61.67 34.59C61.6309 34.5023 61.571 34.4255 61.4956 34.366C61.4202 34.3065 61.3316 34.2662 61.2372 34.2485C61.1428 34.2308 61.0456 34.2363 60.9537 34.2644C60.8619 34.2925 60.7783 34.3425 60.71 34.41V34.41Z" fill="#47352D"/>
<path d="M42.8198 100.72H60.2498L53.0998 127.96H50.1198L42.8198 100.72Z" fill="#651FFF"/>
<path d="M42.5098 94.38L32.5098 100.25L42.0898 110.31L39.7998 118.32L50.2798 128.11L42.5098 94.38ZM60.6698 94.38L70.6698 100.25L61.0898 110.31L63.3798 118.32L52.8998 128.11L60.6698 94.38Z" fill="#646464"/>
<path d="M25.2502 98.82C23.3602 99.33 16.8302 101.37 12.6502 106.3C12.1302 106.91 12.1902 107.84 12.7902 108.37L16.4202 111.62C17.0202 112.16 17.9502 112.12 18.5002 111.53C20.9002 108.94 27.3602 102.71 33.1902 103.71L29.2702 97.51L26.4402 98.47C26.0502 98.6 25.6502 98.71 25.2502 98.82V98.82Z" fill="#212121"/>
<path d="M24.7199 98C22.8299 98.51 16.2999 100.55 12.1199 105.48C11.5999 106.09 11.6599 107.02 12.2599 107.55L15.8899 110.8C16.4899 111.34 17.4199 111.3 17.9699 110.71C20.3699 108.12 26.8299 101.89 32.6599 102.89L28.7399 96.69L25.9099 97.65C25.5199 97.77 25.1199 97.89 24.7199 98V98Z" fill="#616161"/>
<path d="M17.5202 108.46C19.0997 108.46 20.3802 107.18 20.3802 105.6C20.3802 104.02 19.0997 102.74 17.5202 102.74C15.9406 102.74 14.6602 104.02 14.6602 105.6C14.6602 107.18 15.9406 108.46 17.5202 108.46Z" fill="#444444"/>
<path d="M17.0198 108.02C18.511 108.02 19.7198 106.811 19.7198 105.32C19.7198 103.829 18.511 102.62 17.0198 102.62C15.5287 102.62 14.3198 103.829 14.3198 105.32C14.3198 106.811 15.5287 108.02 17.0198 108.02Z" fill="#757575"/>
<path d="M17.0199 102.74C18.4399 102.74 19.5999 103.89 19.5999 105.32C19.5999 106.75 18.4499 107.9 17.0199 107.9C15.5899 107.9 14.4399 106.75 14.4399 105.32C14.4399 103.89 15.5899 102.74 17.0199 102.74M17.0199 102.49C15.4599 102.49 14.1899 103.76 14.1899 105.32C14.1899 106.88 15.4599 108.15 17.0199 108.15C18.5799 108.15 19.8499 106.88 19.8499 105.32C19.8399 103.76 18.5699 102.49 17.0199 102.49Z" fill="#9E9E9E"/>
<path d="M17.9201 105.85C18.2128 105.85 18.4501 105.613 18.4501 105.32C18.4501 105.027 18.2128 104.79 17.9201 104.79C17.6274 104.79 17.3901 105.027 17.3901 105.32C17.3901 105.613 17.6274 105.85 17.9201 105.85Z" fill="#444444"/>
<path d="M16.1101 105.85C16.4028 105.85 16.6401 105.613 16.6401 105.32C16.6401 105.027 16.4028 104.79 16.1101 104.79C15.8174 104.79 15.5801 105.027 15.5801 105.32C15.5801 105.613 15.8174 105.85 16.1101 105.85Z" fill="#444444"/>
<path d="M78.2901 98.82C80.1801 99.33 86.7101 101.37 90.8901 106.3C91.4101 106.91 91.3501 107.84 90.7501 108.37L87.1201 111.62C86.5201 112.16 85.5901 112.12 85.0401 111.53C82.6401 108.94 76.1801 102.71 70.3501 103.71L74.2701 97.51L77.1001 98.47C77.4901 98.6 77.8901 98.71 78.2901 98.82V98.82Z" fill="#212121"/>
<path d="M78.8199 98C80.7099 98.51 87.2399 100.55 91.4199 105.48C91.9399 106.09 91.8799 107.02 91.2799 107.55L87.6499 110.8C87.0499 111.34 86.1199 111.3 85.5699 110.71C83.1699 108.12 76.7099 101.89 70.8799 102.89L74.7999 96.69L77.6299 97.65C78.0199 97.77 78.4199 97.89 78.8199 98V98Z" fill="#616161"/>
<path d="M86.0299 108.46C87.6095 108.46 88.8899 107.18 88.8899 105.6C88.8899 104.02 87.6095 102.74 86.0299 102.74C84.4504 102.74 83.1699 104.02 83.1699 105.6C83.1699 107.18 84.4504 108.46 86.0299 108.46Z" fill="#444444"/>
<path d="M86.5301 108.02C88.0212 108.02 89.2301 106.811 89.2301 105.32C89.2301 103.829 88.0212 102.62 86.5301 102.62C85.0389 102.62 83.8301 103.829 83.8301 105.32C83.8301 106.811 85.0389 108.02 86.5301 108.02Z" fill="#757575"/>
<path d="M86.5302 102.74C87.9502 102.74 89.1102 103.89 89.1102 105.32C89.1102 106.75 87.9602 107.9 86.5302 107.9C85.1102 107.9 83.9502 106.75 83.9502 105.32C83.9502 103.89 85.1002 102.74 86.5302 102.74ZM86.5302 102.49C84.9702 102.49 83.7002 103.76 83.7002 105.32C83.7002 106.88 84.9702 108.15 86.5302 108.15C88.0902 108.15 89.3602 106.88 89.3602 105.32C89.3602 103.76 88.0902 102.49 86.5302 102.49Z" fill="#9E9E9E"/>
<path d="M85.6301 105.85C85.9228 105.85 86.1601 105.613 86.1601 105.32C86.1601 105.027 85.9228 104.79 85.6301 104.79C85.3374 104.79 85.1001 105.027 85.1001 105.32C85.1001 105.613 85.3374 105.85 85.6301 105.85Z" fill="#444444"/>
<path d="M87.4299 105.85C87.7226 105.85 87.9599 105.613 87.9599 105.32C87.9599 105.027 87.7226 104.79 87.4299 104.79C87.1372 104.79 86.8999 105.027 86.8999 105.32C86.8999 105.613 87.1372 105.85 87.4299 105.85Z" fill="#444444"/>
<path d="M26.63 97.5L22.52 98.62L41.81 128H47.23L26.63 97.5ZM76.56 97.25L80.94 98.62L62.6 128H57.19L76.56 97.25Z" fill="#BDBDBD"/>
<path d="M20.27 80.68C20.27 80.68 28.87 86.57 39.1 86.83C40.39 86.86 41.5 87.75 41.76 89.01L50.85 129.17H37.45L20.27 80.68ZM83.06 80.68C83.06 80.68 74.46 86.57 64.23 86.83C62.94 86.86 61.83 87.75 61.57 89.01L52.36 129.17H65.88L83.06 80.68ZM102.91 134.83H96.82C92.07 134.83 88.19 130.95 88.19 126.2V114.97C88.19 110.22 92.07 106.34 96.82 106.34H102.91C107.66 106.34 111.54 110.22 111.54 114.97V126.2C111.54 130.95 107.66 134.83 102.91 134.83Z" fill="#444444"/>
<path d="M92.3002 117.14L89.6702 112.82C87.8502 109.83 88.8002 105.89 91.7902 104.07L96.9902 100.9C99.9802 99.08 103.92 100.03 105.74 103.02L108.37 107.34C110.19 110.33 109.24 114.27 106.25 116.09L101.05 119.26C98.0602 121.08 94.1302 120.13 92.3002 117.14Z" fill="#BDBDBD"/>
<path d="M60.3999 60.71C60.3999 64.71 63.0799 67.95 66.3999 67.95C69.7099 67.95 72.3999 64.71 72.3999 60.71C72.3999 56.7 69.7099 53.46 66.3999 53.46C63.0799 53.46 60.3999 56.7 60.3999 60.71" fill="#42312C"/>
<path d="M91.8 97C93.02 96.06 94.45 95.97 95.9 96.26C96.7 94.77 98.26 92.32 98.8 91.68C99.44 90.93 100.34 89.96 102.07 91.06C103.2 91.77 103.74 92.84 102.8 94.26C102.45 94.79 102.08 95.33 101.71 95.85L102.43 96.13C102.78 95.66 103.11 95.23 103.36 94.91C104.41 93.55 105.73 93.36 107.14 94.49C108.38 95.48 108.12 97.02 107.54 97.83C107.24 98.26 106.25 99.37 105.23 100.43L105.38 100.74L105.41 100.85C106.09 100.22 106.76 99.62 107.23 99.2C108.5 98.08 109.87 98.14 110.78 99.11C111.89 100.28 111.34 101.68 110.7 102.44C110.22 103 108.29 104.79 106.92 105.92L107.09 106.49C107.18 106.4 107.28 106.32 107.38 106.23L107.43 106.18C107.52 106.1 107.6 106.02 107.69 105.94C107.71 105.92 107.73 105.9 107.75 105.89L108.06 105.61L108.07 105.6C108.18 105.5 108.29 105.4 108.41 105.3L108.47 105.24L108.73 105.01C108.77 104.98 108.8 104.95 108.84 104.92L109.07 104.72C109.11 104.69 109.15 104.65 109.18 104.62L109.4 104.43C109.43 104.4 109.47 104.37 109.5 104.34C109.6 104.25 109.71 104.16 109.81 104.08C111.01 103.08 111.91 103.06 112.74 103.96C113.91 105.22 113.14 106.8 112.51 107.45C111.88 108.11 109.48 110.11 108.52 110.63C108.46 110.66 108.4 110.69 108.33 110.71L108.51 111.3C105.48 114.63 102 115.99 102 115.99C99.1899 117.13 98.0299 116.77 96.3399 115.99C94.4199 115.1 92.5899 113.49 92.2899 113.23C89.1799 110.56 87.67 108.19 88.01 104.23C88.09 103.28 88.09 101.78 89.47 99.57C90.04 98.71 90.98 97.63 91.8 97V97Z" fill="#9B643C"/>
<path d="M99.4598 98.31C99.4598 98.31 97.8698 97 95.9098 96.27L96.2598 95.63C96.2598 95.63 97.6898 96.11 99.4398 97.28C99.7298 97.47 99.9698 97.65 100.21 97.84L100.58 97.31L103.06 93.8C103.06 93.8 102.91 94.09 103.29 94.39C103.45 94.51 103.63 94.5 103.74 94.48C103.61 94.61 103.48 94.75 103.35 94.91L100.79 98.31C100.88 98.39 100.97 98.47 101.07 98.55C102.37 99.71 103.43 101.07 103.32 102.23C105.62 99.95 107.55 97.83 107.55 97.83C107.38 98.41 108.06 98.65 108.06 98.65C106.25 99.98 102.74 103.9 102.74 103.9C101.21 105.51 102.2 106.68 102.2 106.68C103.36 108.13 105.24 107.1 105.24 107.1C105.52 106.99 107.35 105.44 108.64 104.33L109.93 103.21L110.29 102.9C110.25 102.93 110.12 103.09 110.33 103.35C110.43 103.48 110.54 103.52 110.62 103.54C110.38 103.67 110.12 103.84 109.85 104.07C109.23 104.59 107.44 106.22 107.3 106.34L106.86 106.76C105.42 108.15 105.4 108.74 105.4 108.74C105.17 109.96 106.46 110.59 106.46 110.59C107.66 111.24 108.92 110.34 108.92 110.34C109.41 110 111.85 108.09 111.85 108.09L108.54 111.3C108.26 111.49 108.07 111.49 107.85 111.54C105.82 111.98 104.83 110.33 104.83 110.33C104.44 109.7 104.53 109.11 104.53 109.11C104.57 108.74 104.72 108.4 104.91 108.09C102.97 108.94 101.6 107.46 101.6 107.46C100.79 106.5 100.93 105.49 101.2 104.8C101.12 104.82 101.04 104.84 100.96 104.85C100.96 104.85 99.5998 105.29 97.2098 102.85C96.4098 102.03 96.2698 101.94 95.6398 101.59C95.6398 101.59 94.1698 100.97 93.7598 102.27C93.7598 102.27 93.5798 102.68 93.5798 103.53C93.5798 103.53 93.5698 104.21 93.0598 103.79C92.9098 103.66 92.7098 103.33 92.6398 102.92C92.6398 102.92 92.5498 102.5 92.8298 101.84C92.8298 101.84 93.3798 100 95.3398 100.42C96.3598 100.64 96.7998 101.1 97.4498 101.8C97.4498 101.8 99.6398 103.9 100.9 103.89C100.9 103.89 102.09 103.84 102.43 102.52C102.43 102.51 102.75 100.6 99.4598 98.31V98.31Z" fill="#7A4C32"/>
<path d="M58.7199 40.93C48.3099 47.88 45.4999 61.95 52.4299 72.36C58.8099 81.93 71.1899 85.05 81.2399 80.13L88.5699 91.14L93.5699 87.81L86.2399 76.8C94.6499 69.42 96.5299 56.79 90.1499 47.22C83.2099 36.81 69.1399 33.99 58.7199 40.93V40.93ZM86.1899 49.86C91.6699 58.08 89.4499 69.19 81.2299 74.68C72.9999 80.16 61.8899 77.94 56.4099 69.72C50.9299 61.49 53.1499 50.38 61.3699 44.9C69.5899 39.42 80.6999 41.64 86.1899 49.86V49.86Z" fill="#78A3AD"/>
<path opacity="0.6" d="M61.37 44.9C53.14 50.38 50.93 61.49 56.41 69.72C61.89 77.94 73 80.16 81.23 74.68C89.45 69.19 91.67 58.08 86.19 49.86C80.7 41.64 69.59 39.42 61.37 44.9V44.9Z" fill="white"/>
<path d="M109.09 104.07C109.04 103.93 108.99 103.78 108.9 103.65C108.9 103.65 94.0402 83.95 94.0302 83.93C91.6302 80.33 82.2402 86.34 84.7602 90.11L99.6302 109.83C99.6902 109.92 99.7802 109.99 99.8602 110.07C99.9102 111.25 101.27 111.57 102.75 111.41C105.07 111.16 106.98 110.13 108.53 108.36C108.9 107.94 109.4 107.4 109.59 106.87C109.99 105.77 110.12 104.52 109.09 104.07V104.07Z" fill="#FF6E40"/>
<path d="M107.47 97.92C107.49 97.89 107.52 97.85 107.54 97.83C108.11 97.01 108.38 95.48 107.14 94.49C105.78 93.41 104.52 93.55 103.49 94.76L103.15 94.59C103.25 94.45 103.35 94.3 103.45 94.16C103.83 93.34 103.7 92.66 103.27 92.1C103.22 91.99 102.35 91.26 102.25 91.19C101.36 90.58 100.73 90.58 100.73 90.58C99.6802 90.26 98.3302 92.33 98.3302 92.33L96.0002 96.21C95.8602 96.31 95.7202 96.4 95.5902 96.48C94.3902 96.35 93.2202 96.54 92.2102 97.33C91.4002 97.96 90.4502 99.04 89.9102 99.9C88.5302 102.11 88.5302 103.61 88.4502 104.56C88.4302 104.76 88.4402 104.94 88.4302 105.14C90.2902 105.46 92.5002 105.45 93.3302 103.95C93.2002 103.71 93.1102 103.4 93.0902 103.28C93.0002 102.75 93.1002 102.19 93.3802 101.74C93.8202 101.03 94.6702 100.61 95.5002 100.69C96.7802 100.82 97.3902 102.34 98.3702 103.18C98.8302 103.58 99.6102 103.55 100.15 103.83C100.67 104.09 101.27 104.3 101.82 104.11C101.86 104.1 101.89 104.07 101.92 104.05C101.98 104.14 102.09 104.31 102.24 104.54C102.06 104.8 101.91 105.08 101.86 105.39C101.74 106.08 102.12 106.81 102.72 107.17C103.16 107.44 103.69 107.52 104.2 107.45C104.66 108.12 105.09 108.72 105.34 109.04C105.33 109.91 106.17 110.67 107.05 110.76C107.98 110.86 108.89 110.41 109.63 109.84C110.38 109.27 111.03 108.58 111.81 108.08C111.78 108.11 111.74 108.14 111.71 108.18C112.05 107.88 112.34 107.62 112.5 107.45C113.13 106.79 113.9 105.22 112.73 103.96C112.07 103.24 111.35 103.13 110.48 103.62C110.24 103.52 109.94 103.44 109.74 103.36L110.15 103.01C110.39 102.78 110.58 102.58 110.69 102.45C111.33 101.7 111.88 100.3 110.77 99.12C110.03 98.35 109.01 98.16 107.98 98.69C107.68 98.95 107.38 99.22 107.08 99.48C106.98 99.2 106.87 98.91 106.77 98.63C107.02 98.39 107.24 98.16 107.47 97.92V97.92Z" fill="#9B643C"/>
<path d="M103.76 34.67C103.76 38.55 99.14 41.28 90.24 43.86C85.18 45.33 81.17 48.54 74.28 49.29C68.57 49.91 59.96 47.47 53.46 47.47C46.96 47.47 37.38 49.95 31.69 49.12C22.7 47.81 18.82 44.36 13.76 42.89C4.85998 40.31 0.22998 38.56 0.22998 34.67C0.22998 30.79 4.11998 28.12 13.02 25.54C18.08 24.07 26.58 21.23 33.47 20.47C39.2 19.84 45.5 21.16 52 21.16C58.5 21.16 64.8 19.84 70.52 20.47C77.42 21.22 84.63 22.54 89.69 24.01C98.58 26.59 103.76 30.78 103.76 34.67V34.67Z" fill="#646464"/>
<path d="M103.76 32.56C103.76 36.44 99.14 39.17 90.24 41.75C85.18 43.22 81.17 46.43 74.28 47.18C68.57 47.8 59.96 45.36 53.46 45.36C46.96 45.36 37.38 47.84 31.69 47.01C22.7 45.7 18.82 42.25 13.76 40.78C4.85998 38.2 0.22998 36.45 0.22998 32.56C0.22998 28.68 4.11998 26.01 13.02 23.43C18.08 21.96 26.58 19.12 33.47 18.36C39.2 17.74 45.5 19.06 52 19.06C58.5 19.06 64.8 17.74 70.52 18.37C77.42 19.12 84.63 20.44 89.69 21.91C98.58 24.48 103.76 28.68 103.76 32.56V32.56Z" fill="#757575"/>
<path d="M38.4 3.5C42 5.9 46.41 7.02 50.73 6.56C54.7 6.14 58.49 4.72 62.14 3.07C62.76 2.79 63.39 3.41 63.14 4.04C62.59 5.45 57 10.68 50.26 10.68C44.04 10.68 39.88 8.21 37.71 4.61C37.43 4.14 37.66 3.01 38.4 3.5V3.5Z" fill="#757575"/>
<path d="M86.63 21.5C74.14 29.05 30.12 29.08 17.74 21.43C16.7 23.88 15.62 26.39 14.48 28.91C14.63 42.55 90.11 42.42 89.96 28.91C88.84 26.46 87.74 23.97 86.63 21.5Z" fill="#444444"/>
<path d="M103.77 94.43C103.54 94.43 103.3 94.28 103.3 94.28C103.29 94.29 103.29 94.3 103.28 94.31C103.03 94.57 100.21 97.83 100.21 97.83C99.1101 96.98 97.4601 96.4 96.1701 95.87C95.9901 96.06 95.8201 96.32 95.5701 96.47C96.8001 97.02 98.3901 97.47 99.4701 98.28C100.19 98.82 100.85 99.42 101.43 100.11C101.89 100.67 102.31 101.3 102.38 102.02C102.45 102.74 102.09 103.55 101.41 103.78C100.86 103.97 100.26 103.76 99.7401 103.5C99.2005 103.221 98.694 102.882 98.2301 102.49C97.2501 101.65 96.3701 100.49 95.0901 100.37C94.2601 100.29 93.4101 100.71 92.9701 101.42C92.6901 101.88 92.5901 102.43 92.6801 102.96C92.7201 103.21 93.0501 104.31 93.4901 103.79C93.6101 103.64 93.6101 103.43 93.6101 103.23C93.6101 102.64 93.7101 101.97 94.1901 101.63C94.7901 101.21 95.6201 101.53 96.2101 101.96C97.0101 102.55 97.6601 103.33 98.4401 103.94C99.2201 104.56 100.22 105.02 101.2 104.81C100.73 105.77 101.06 107.02 101.88 107.7C102.7 108.38 103.91 108.5 104.9 108.1C104.38 108.79 104.45 109.83 104.96 110.53C105.47 111.23 106.36 111.6 107.23 111.61C107.61 111.62 107.99 111.56 108.32 111.39C108.39 111.35 108.45 111.3 108.52 111.25L108.36 110.71L108.41 110.89L108.52 111.26C108.72 111.12 108.91 110.96 109.08 110.79C109.18 110.69 109.28 110.59 109.39 110.49L111.75 108.19C111.78 108.16 111.82 108.13 111.85 108.09C111.06 108.6 110.41 109.29 109.67 109.85C108.92 110.42 108.02 110.87 107.09 110.77C106.16 110.67 105.27 109.85 105.38 108.92C105.44 108.36 105.83 107.9 106.21 107.49C106.81 106.83 107.44 106.21 108.1 105.61L108.64 105.13C108.68 105.09 108.73 105.05 108.77 105.01C108.81 104.98 108.84 104.95 108.88 104.92L109.11 104.72C109.15 104.69 109.19 104.65 109.22 104.62L109.44 104.43C109.47 104.4 109.51 104.37 109.54 104.34C109.64 104.25 109.75 104.16 109.85 104.08C110.06 103.91 110.26 103.77 110.45 103.66L110.6 103.54C110.33 103.5 110.16 103.16 110.3 102.92C110.26 102.95 110.23 102.98 110.19 103.01C108.93 104.09 107.67 105.16 106.4 106.24C105.9 106.66 105.39 107.09 104.78 107.32C104.12 107.56 103.35 107.54 102.75 107.18C102.15 106.82 101.77 106.09 101.89 105.4C101.98 104.87 102.33 104.43 102.68 104.03C104.31 102.11 106.09 100.33 108.01 98.7C108.03 98.69 108.04 98.67 108.06 98.65C107.72 98.58 107.47 98.19 107.56 97.85C107.53 97.88 107.51 97.91 107.48 97.93L103.35 102.24C103.27 100.63 101.98 99.39 100.79 98.31C100.78 98.31 103.65 94.59 103.77 94.43V94.43Z" fill="#7A4C32"/>
</svg>
